<svg xmlns="http://www.w3.org/2000/svg" viewBox="0 0 1200 620" font-family="Inter, system-ui, -apple-system, sans-serif">
  <defs>
    <marker id="arrow-gray" viewBox="0 0 10 7" refX="10" refY="3.5" markerWidth="8" markerHeight="6" orient="auto-start-reverse">
      <polygon points="0 0, 10 3.5, 0 7" fill="#9ca3af"/>
    </marker>
    <marker id="arrow-orange" viewBox="0 0 10 7" refX="10" refY="3.5" markerWidth="8" markerHeight="6" orient="auto-start-reverse">
      <polygon points="0 0, 10 3.5, 0 7" fill="#f59e0b"/>
    </marker>
    <pattern id="grid" width="30" height="30" patternUnits="userSpaceOnUse">
      <path d="M 30 0 L 0 0 0 30" fill="none" stroke="#f3f4f6" stroke-width="0.5"/>
    </pattern>
    <filter id="shadow" x="-4%" y="-4%" width="108%" height="108%">
      <feDropShadow dx="0" dy="1" stdDeviation="3" flood-opacity="0.08"/>
    </filter>
  </defs>

  <!-- Background -->
  <rect width="1200" height="620" fill="#fafafa"/>
  <rect width="1200" height="620" fill="url(#grid)"/>

  <!-- Scope labels -->
  <text x="280" y="42" text-anchor="middle" font-size="13" font-weight="600" fill="#6b7280" letter-spacing="0.08em">ACME ENGINEERING</text>
  <text x="280" y="56" text-anchor="middle" font-size="10" fill="#9ca3af">scp-7ba8ae22aa87</text>
  <rect x="100" y="64" width="360" height="1" fill="#e5e7eb" rx="0.5"/>

  <text x="920" y="42" text-anchor="middle" font-size="13" font-weight="600" fill="#6b7280" letter-spacing="0.08em">ACME FINANCE</text>
  <text x="920" y="56" text-anchor="middle" font-size="10" fill="#9ca3af">scp-2c68db3b29ab</text>
  <rect x="740" y="64" width="360" height="1" fill="#e5e7eb" rx="0.5"/>

  <!-- Scope separation -->
  <line x1="590" y1="30" x2="590" y2="570" stroke="#e5e7eb" stroke-width="1" stroke-dasharray="6 4"/>
  <text x="590" y="588" text-anchor="middle" font-size="10" fill="#d1d5db" font-style="italic">scope isolation — no cross-scope relations</text>

  <!-- ==================== EDGES ==================== -->

  <!-- rul-0135c5c224bb -> dec-cdb778711023 (DEPENDS_ON) -->
  <path d="M 230 240 Q 160 180 180 140" stroke="#9ca3af" stroke-width="1.5" fill="none" marker-end="url(#arrow-gray)"/>
  <text x="155" y="188" font-size="9" fill="#9ca3af" transform="rotate(-42, 155, 188)">depends_on</text>

  <!-- rul-65f25838d0f8 -> dec-ba1d32db49fd (DEPENDS_ON) -->
  <path d="M 320 335 Q 390 260 400 140" stroke="#9ca3af" stroke-width="1.5" fill="none" marker-end="url(#arrow-gray)"/>
  <text x="380" y="230" font-size="9" fill="#9ca3af" transform="rotate(60, 380, 230)">depends_on</text>

  <!-- ovr-27b1c6b50923 -> rul-0135c5c224bb (OVERRIDES) -->
  <path d="M 270 480 L 270 275" stroke="#f59e0b" stroke-width="1.5" stroke-dasharray="4 2" fill="none" marker-end="url(#arrow-orange)"/>
  <text x="282" y="380" font-size="9" fill="#f59e0b">overrides</text>

  <!-- rul-1c45bfd77d6c -> dec-0605c907b342 (DEPENDS_ON) -->
  <path d="M 920 245 L 920 140" stroke="#9ca3af" stroke-width="1.5" fill="none" marker-end="url(#arrow-gray)"/>
  <text x="932" y="192" font-size="9" fill="#9ca3af">depends_on</text>

  <!-- ovr-d1d6abd75d93 -> rul-1c45bfd77d6c (OVERRIDES) -->
  <path d="M 920 425 L 920 275" stroke="#f59e0b" stroke-width="1.5" stroke-dasharray="4 2" fill="none" marker-end="url(#arrow-orange)"/>
  <text x="932" y="352" font-size="9" fill="#f59e0b">overrides</text>

  <!-- ==================== ENGINEERING NODES ==================== -->

  <!-- dec-cdb778711023 — gRPC decision -->
  <g filter="url(#shadow)">
    <rect x="80" y="85" width="220" height="55" rx="8" fill="white" stroke="#3b82f6" stroke-width="1.5"/>
    <rect x="80" y="85" width="220" height="55" rx="8" fill="#eff6ff" opacity="0.3"/>
    <circle cx="98" cy="106" r="10" fill="#3b82f6"/>
    <text x="98" y="110" text-anchor="middle" font-size="9" font-weight="700" fill="white">D</text>
    <text x="115" y="103" font-size="8" fill="#3b82f6" font-weight="600">dec-cdb778711023</text>
    <text x="115" y="118" font-size="10.5" fill="#111827" font-weight="500">gRPC for inter-service comm.</text>
    <text x="115" y="131" font-size="8" fill="#9ca3af">by cto</text>
  </g>

  <!-- dec-ba1d32db49fd — PostgreSQL decision -->
  <g filter="url(#shadow)">
    <rect x="320" y="85" width="240" height="55" rx="8" fill="white" stroke="#3b82f6" stroke-width="1.5"/>
    <rect x="320" y="85" width="240" height="55" rx="8" fill="#eff6ff" opacity="0.3"/>
    <circle cx="338" cy="106" r="10" fill="#3b82f6"/>
    <text x="338" y="110" text-anchor="middle" font-size="9" font-weight="700" fill="white">D</text>
    <text x="355" y="103" font-size="8" fill="#3b82f6" font-weight="600">dec-ba1d32db49fd</text>
    <text x="355" y="118" font-size="10.5" fill="#111827" font-weight="500">PostgreSQL for transactional svc.</text>
    <text x="355" y="131" font-size="8" fill="#9ca3af">by tech-lead</text>
  </g>

  <!-- rul-0135c5c224bb — gRPC rule -->
  <g filter="url(#shadow)">
    <rect x="100" y="220" width="310" height="55" rx="8" fill="white" stroke="#22c55e" stroke-width="1.5"/>
    <rect x="100" y="220" width="310" height="55" rx="8" fill="#f0fdf4" opacity="0.3"/>
    <circle cx="118" cy="241" r="10" fill="#22c55e"/>
    <text x="118" y="245" text-anchor="middle" font-size="9" font-weight="700" fill="white">R</text>
    <text x="135" y="238" font-size="8" fill="#22c55e" font-weight="600">rul-0135c5c224bb · MANDATORY</text>
    <text x="135" y="253" font-size="10.5" fill="#111827" font-weight="500">All new services use gRPC</text>
    <text x="135" y="266" font-size="8" fill="#9ca3af">by cto</text>
  </g>

  <!-- rul-65f25838d0f8 — PostgreSQL rule -->
  <g filter="url(#shadow)">
    <rect x="100" y="310" width="360" height="55" rx="8" fill="white" stroke="#22c55e" stroke-width="1.5"/>
    <rect x="100" y="310" width="360" height="55" rx="8" fill="#f0fdf4" opacity="0.3"/>
    <circle cx="118" cy="331" r="10" fill="#22c55e"/>
    <text x="118" y="335" text-anchor="middle" font-size="9" font-weight="700" fill="white">R</text>
    <text x="135" y="328" font-size="8" fill="#22c55e" font-weight="600">rul-65f25838d0f8 · MANDATORY</text>
    <text x="135" y="343" font-size="10.5" fill="#111827" font-weight="500">PostgreSQL required for ACID services</text>
    <text x="135" y="356" font-size="8" fill="#9ca3af">by tech-lead</text>
  </g>

  <!-- inv-2fb2af9533f4 — No AGPL -->
  <g filter="url(#shadow)">
    <rect x="100" y="400" width="320" height="55" rx="8" fill="white" stroke="#ef4444" stroke-width="1.5"/>
    <rect x="100" y="400" width="320" height="55" rx="8" fill="#fef2f2" opacity="0.3"/>
    <circle cx="118" cy="421" r="10" fill="#ef4444"/>
    <text x="118" y="425" text-anchor="middle" font-size="9" font-weight="700" fill="white">I</text>
    <text x="135" y="418" font-size="8" fill="#ef4444" font-weight="600">inv-2fb2af9533f4 · BLOCKING</text>
    <text x="135" y="433" font-size="10.5" fill="#111827" font-weight="500">No AGPL dependencies in production</text>
    <text x="135" y="446" font-size="8" fill="#9ca3af">by legal-team</text>
  </g>

  <!-- ovr-27b1c6b50923 — REST override -->
  <g filter="url(#shadow)">
    <rect x="100" y="485" width="350" height="55" rx="8" fill="white" stroke="#f59e0b" stroke-width="1.5"/>
    <rect x="100" y="485" width="350" height="55" rx="8" fill="#fffbeb" opacity="0.3"/>
    <circle cx="118" cy="506" r="10" fill="#f59e0b"/>
    <text x="118" y="510" text-anchor="middle" font-size="9" font-weight="700" fill="white">O</text>
    <text x="135" y="503" font-size="8" fill="#f59e0b" font-weight="600">ovr-27b1c6b50923 · TEMPORARY</text>
    <text x="135" y="518" font-size="10.5" fill="#111827" font-weight="500">REST permitted for notifications</text>
    <text x="135" y="531" font-size="8" fill="#9ca3af">approved by cto · expires 2026-06-06</text>
  </g>

  <!-- ==================== FINANCE NODES ==================== -->

  <!-- dec-0605c907b342 — Internal scoring decision -->
  <g filter="url(#shadow)">
    <rect x="750" y="85" width="340" height="55" rx="8" fill="white" stroke="#3b82f6" stroke-width="1.5"/>
    <rect x="750" y="85" width="340" height="55" rx="8" fill="#eff6ff" opacity="0.3"/>
    <circle cx="768" cy="106" r="10" fill="#3b82f6"/>
    <text x="768" y="110" text-anchor="middle" font-size="9" font-weight="700" fill="white">D</text>
    <text x="785" y="103" font-size="8" fill="#3b82f6" font-weight="600">dec-0605c907b342</text>
    <text x="785" y="118" font-size="10.5" fill="#111827" font-weight="500">Internal scoring model for credit risk</text>
    <text x="785" y="131" font-size="8" fill="#9ca3af">by head-of-credit</text>
  </g>

  <!-- rul-1c45bfd77d6c — Scoring rule -->
  <g filter="url(#shadow)">
    <rect x="720" y="220" width="400" height="55" rx="8" fill="white" stroke="#22c55e" stroke-width="1.5"/>
    <rect x="720" y="220" width="400" height="55" rx="8" fill="#f0fdf4" opacity="0.3"/>
    <circle cx="738" cy="241" r="10" fill="#22c55e"/>
    <text x="738" y="245" text-anchor="middle" font-size="9" font-weight="700" fill="white">R</text>
    <text x="755" y="238" font-size="8" fill="#22c55e" font-weight="600">rul-1c45bfd77d6c · MANDATORY</text>
    <text x="755" y="253" font-size="10.5" fill="#111827" font-weight="500">Use internal scoring, not agency ratings alone</text>
    <text x="755" y="266" font-size="8" fill="#9ca3af">by head-of-credit</text>
  </g>

  <!-- inv-c1b9dda8af05 — Exposure limit -->
  <g filter="url(#shadow)">
    <rect x="720" y="320" width="380" height="55" rx="8" fill="white" stroke="#ef4444" stroke-width="1.5"/>
    <rect x="720" y="320" width="380" height="55" rx="8" fill="#fef2f2" opacity="0.3"/>
    <circle cx="738" cy="341" r="10" fill="#ef4444"/>
    <text x="738" y="345" text-anchor="middle" font-size="9" font-weight="700" fill="white">I</text>
    <text x="755" y="338" font-size="8" fill="#ef4444" font-weight="600">inv-c1b9dda8af05 · BLOCKING</text>
    <text x="755" y="353" font-size="10.5" fill="#111827" font-weight="500">Max 5% portfolio exposure per issuer</text>
    <text x="755" y="366" font-size="8" fill="#9ca3af">by risk-committee</text>
  </g>

  <!-- ovr-d1d6abd75d93 — Client X override -->
  <g filter="url(#shadow)">
    <rect x="720" y="425" width="380" height="55" rx="8" fill="white" stroke="#f59e0b" stroke-width="1.5"/>
    <rect x="720" y="425" width="380" height="55" rx="8" fill="#fffbeb" opacity="0.3"/>
    <circle cx="738" cy="446" r="10" fill="#f59e0b"/>
    <text x="738" y="450" text-anchor="middle" font-size="9" font-weight="700" fill="white">O</text>
    <text x="755" y="443" font-size="8" fill="#f59e0b" font-weight="600">ovr-d1d6abd75d93 · TEMPORARY</text>
    <text x="755" y="458" font-size="10.5" fill="#111827" font-weight="500">Reduced margin for client X</text>
    <text x="755" y="471" font-size="8" fill="#9ca3af">approved by head-of-credit · expires 2025-12-01</text>
  </g>

  <!-- ==================== LEGEND ==================== -->
  <g transform="translate(340, 606)">
    <circle cx="0" cy="0" r="5" fill="#3b82f6"/>
    <text x="9" y="4" font-size="10" fill="#6b7280">Decision</text>
    <circle cx="80" cy="0" r="5" fill="#22c55e"/>
    <text x="89" y="4" font-size="10" fill="#6b7280">Rule</text>
    <circle cx="135" cy="0" r="5" fill="#ef4444"/>
    <text x="144" y="4" font-size="10" fill="#6b7280">Invariant</text>
    <circle cx="220" cy="0" r="5" fill="#f59e0b"/>
    <text x="229" y="4" font-size="10" fill="#6b7280">Override</text>
    <line x1="300" y1="0" x2="320" y2="0" stroke="#9ca3af" stroke-width="1.5"/>
    <text x="325" y="4" font-size="10" fill="#6b7280">depends_on</text>
    <line x1="405" y1="0" x2="425" y2="0" stroke="#f59e0b" stroke-width="1.5" stroke-dasharray="4 2"/>
    <text x="430" y="4" font-size="10" fill="#6b7280">overrides</text>
  </g>
</svg>
