<svg xmlns="http://www.w3.org/2000/svg" viewBox="0 0 1200 820" fill="none">
  <defs>
    <linearGradient id="bgGrad" x1="0" y1="0" x2="1200" y2="820" gradientUnits="userSpaceOnUse">
      <stop offset="0%" stop-color="#f8fafc"/>
      <stop offset="100%" stop-color="#f1f5f9"/>
    </linearGradient>
    <linearGradient id="sidebarGrad" x1="0" y1="0" x2="0" y2="820" gradientUnits="userSpaceOnUse">
      <stop offset="0%" stop-color="#111827"/>
      <stop offset="100%" stop-color="#1f2937"/>
    </linearGradient>
    <filter id="cardShadow" x="-4" y="-2" width="108%" height="116%">
      <feDropShadow dx="0" dy="2" stdDeviation="6" flood-color="#0f172a" flood-opacity="0.08"/>
    </filter>
    <filter id="softShadow" x="-2%" y="-2%" width="104%" height="108%">
      <feDropShadow dx="0" dy="1" stdDeviation="3" flood-color="#0f172a" flood-opacity="0.06"/>
    </filter>
    <clipPath id="browserClip">
      <rect x="0" y="0" width="1200" height="820" rx="12"/>
    </clipPath>
  </defs>

  <!-- Browser frame -->
  <rect width="1200" height="820" rx="12" fill="#e2e8f0"/>
  <g clip-path="url(#browserClip)">

  <!-- Browser title bar -->
  <rect x="0" y="0" width="1200" height="36" fill="#e2e8f0"/>
  <circle cx="20" cy="18" r="6" fill="#f87171"/>
  <circle cx="40" cy="18" r="6" fill="#fbbf24"/>
  <circle cx="60" cy="18" r="6" fill="#34d399"/>
  <rect x="200" y="8" width="800" height="20" rx="4" fill="#cbd5e1"/>
  <text x="600" y="22" text-anchor="middle" font-family="Inter, system-ui, sans-serif" font-size="10" fill="#64748b">app.asplenz.com/registry</text>

  <!-- Sidebar -->
  <rect x="0" y="36" width="220" height="784" fill="url(#sidebarGrad)"/>

  <!-- Logo area -->
  <rect x="16" y="50" width="188" height="44" rx="6" fill="transparent"/>
  <text x="32" y="72" font-family="Inter, system-ui, sans-serif" font-size="15" font-weight="700" fill="white">Asplenz Evidence</text>
  <text x="32" y="86" font-family="Inter, system-ui, sans-serif" font-size="10" fill="#9ca3af">Acme Corp</text>

  <!-- Divider -->
  <line x1="16" y1="102" x2="204" y2="102" stroke="#374151" stroke-width="1"/>

  <!-- Nav: AI Registry section -->
  <text x="32" y="126" font-family="Inter, system-ui, sans-serif" font-size="10" font-weight="600" fill="#6b7280" letter-spacing="0.05em">AI REGISTRY</text>

  <!-- Active nav item: Compliance -->
  <rect x="12" y="134" width="196" height="32" rx="6" fill="#1f2937"/>
  <!-- Clipboard icon -->
  <g transform="translate(28, 142)" fill="none" stroke="white" stroke-width="1.5" stroke-linecap="round" stroke-linejoin="round">
    <rect x="2" y="1" width="10" height="13" rx="1.5"/>
    <path d="M4 0.5h6a1 1 0 0 1 1 1V3H3V1.5a1 1 0 0 1 1-1z"/>
    <path d="M5 7h4M5 10h2"/>
  </g>
  <text x="50" y="155" font-family="Inter, system-ui, sans-serif" font-size="13" fill="white">Compliance</text>

  <!-- Nav item: Systems -->
  <rect x="12" y="170" width="196" height="32" rx="6" fill="transparent"/>
  <!-- Server icon -->
  <g transform="translate(28, 178)" fill="none" stroke="#9ca3af" stroke-width="1.5" stroke-linecap="round">
    <rect x="1" y="0" width="12" height="5" rx="1"/>
    <rect x="1" y="8" width="12" height="5" rx="1"/>
    <circle cx="4" cy="2.5" r="0.5" fill="#9ca3af"/>
    <circle cx="4" cy="10.5" r="0.5" fill="#9ca3af"/>
  </g>
  <text x="50" y="191" font-family="Inter, system-ui, sans-serif" font-size="13" fill="#9ca3af">Systems</text>

  <!-- Divider -->
  <line x1="16" y1="214" x2="204" y2="214" stroke="#374151" stroke-width="1"/>

  <!-- Nav: AI Governance -->
  <text x="32" y="238" font-family="Inter, system-ui, sans-serif" font-size="10" font-weight="600" fill="#6b7280" letter-spacing="0.05em">AI GOVERNANCE</text>
  <g opacity="0.5">
    <rect x="12" y="246" width="196" height="32" rx="6" fill="transparent"/>
    <text x="50" y="267" font-family="Inter, system-ui, sans-serif" font-size="13" fill="#6b7280">Dashboard</text>
    <rect x="12" y="278" width="196" height="32" rx="6" fill="transparent"/>
    <text x="50" y="299" font-family="Inter, system-ui, sans-serif" font-size="13" fill="#6b7280">Decisions</text>
    <!-- Lock icon for gated -->
    <g transform="translate(175, 255)" fill="none" stroke="#6b7280" stroke-width="1.2">
      <rect x="1" y="4" width="8" height="6" rx="1"/>
      <path d="M3 4V2.5a2 2 0 0 1 4 0V4"/>
    </g>
    <g transform="translate(175, 287)" fill="none" stroke="#6b7280" stroke-width="1.2">
      <rect x="1" y="4" width="8" height="6" rx="1"/>
      <path d="M3 4V2.5a2 2 0 0 1 4 0V4"/>
    </g>
  </g>

  <!-- Divider -->
  <line x1="16" y1="322" x2="204" y2="322" stroke="#374151" stroke-width="1"/>

  <!-- Nav: Incidents -->
  <text x="32" y="346" font-family="Inter, system-ui, sans-serif" font-size="10" font-weight="600" fill="#6b7280" letter-spacing="0.05em">INCIDENTS</text>
  <g opacity="0.5">
    <rect x="12" y="354" width="196" height="32" rx="6" fill="transparent"/>
    <text x="50" y="375" font-family="Inter, system-ui, sans-serif" font-size="13" fill="#6b7280">Dashboard</text>
    <g transform="translate(175, 363)" fill="none" stroke="#6b7280" stroke-width="1.2">
      <rect x="1" y="4" width="8" height="6" rx="1"/>
      <path d="M3 4V2.5a2 2 0 0 1 4 0V4"/>
    </g>
  </g>

  <!-- Nav: Tools -->
  <line x1="16" y1="398" x2="204" y2="398" stroke="#374151" stroke-width="1"/>
  <text x="32" y="422" font-family="Inter, system-ui, sans-serif" font-size="10" font-weight="600" fill="#6b7280" letter-spacing="0.05em">TOOLS</text>
  <rect x="12" y="430" width="196" height="32" rx="6" fill="transparent"/>
  <text x="50" y="451" font-family="Inter, system-ui, sans-serif" font-size="13" fill="#9ca3af">Verify Proof</text>
  <rect x="12" y="462" width="196" height="32" rx="6" fill="transparent"/>
  <text x="50" y="483" font-family="Inter, system-ui, sans-serif" font-size="13" fill="#9ca3af">Audit Search</text>

  <!-- User section at bottom -->
  <line x1="16" y1="746" x2="204" y2="746" stroke="#374151" stroke-width="1"/>
  <text x="32" y="772" font-family="Inter, system-ui, sans-serif" font-size="12" font-weight="500" fill="white">Marie Dupont</text>
  <text x="32" y="786" font-family="Inter, system-ui, sans-serif" font-size="10" fill="#9ca3af">marie@acme-corp.eu</text>

  <!-- ═══════════════════════════════════════════════════ -->
  <!-- MAIN CONTENT AREA -->
  <!-- ═══════════════════════════════════════════════════ -->
  <rect x="220" y="36" width="980" height="784" fill="url(#bgGrad)"/>

  <!-- Page header -->
  <text x="260" y="82" font-family="Inter, system-ui, sans-serif" font-size="22" font-weight="700" fill="#111827">AI Registry</text>
  <text x="260" y="102" font-family="Inter, system-ui, sans-serif" font-size="13" fill="#111827">EU AI Act compliance overview for all registered systems</text>

  <!-- Export CSV button -->
  <rect x="1060" y="64" width="110" height="34" rx="6" fill="white" stroke="#d1d5db" stroke-width="1" filter="url(#softShadow)"/>
  <!-- Download icon -->
  <g transform="translate(1074, 74)" fill="none" stroke="#374151" stroke-width="1.5" stroke-linecap="round">
    <path d="M7 1v9M3 7l4 4 4-4"/>
    <path d="M1 12h12"/>
  </g>
  <text x="1095" y="86" font-family="Inter, system-ui, sans-serif" font-size="12" font-weight="500" fill="#374151">Export CSV</text>

  <!-- ─── KPI CARDS ROW ─── -->

  <!-- KPI 1: Total Systems -->
  <rect x="260" y="120" width="218" height="80" rx="8" fill="white" filter="url(#cardShadow)"/>
  <rect x="276" y="140" width="36" height="36" rx="8" fill="#eff6ff"/>
  <!-- Server icon -->
  <g transform="translate(284, 148)" fill="none" stroke="#2563eb" stroke-width="1.5" stroke-linecap="round">
    <rect x="0" y="0" width="18" height="7" rx="2"/>
    <rect x="0" y="11" width="18" height="7" rx="2"/>
    <circle cx="4" cy="3.5" r="1" fill="#2563eb"/>
    <circle cx="4" cy="14.5" r="1" fill="#2563eb"/>
  </g>
  <text x="324" y="152" font-family="Inter, system-ui, sans-serif" font-size="26" font-weight="700" fill="#111827">8</text>
  <text x="324" y="170" font-family="Inter, system-ui, sans-serif" font-size="12" fill="#111827">Total Systems</text>

  <!-- KPI 2: High / Unacceptable -->
  <rect x="490" y="120" width="218" height="80" rx="8" fill="white" filter="url(#cardShadow)"/>
  <rect x="506" y="140" width="36" height="36" rx="8" fill="#fff7ed"/>
  <!-- Alert triangle -->
  <g transform="translate(514, 148)" fill="none" stroke="#ea580c" stroke-width="1.5" stroke-linecap="round" stroke-linejoin="round">
    <path d="M9 2L17 16H1L9 2z"/>
    <line x1="9" y1="7" x2="9" y2="10"/>
    <circle cx="9" cy="13" r="0.5" fill="#ea580c"/>
  </g>
  <text x="554" y="152" font-family="Inter, system-ui, sans-serif" font-size="26" font-weight="700" fill="#111827">3</text>
  <text x="554" y="170" font-family="Inter, system-ui, sans-serif" font-size="12" fill="#111827">High / Unacceptable Risk</text>

  <!-- KPI 3: Avg. Completion -->
  <rect x="720" y="120" width="218" height="80" rx="8" fill="white" filter="url(#cardShadow)"/>
  <rect x="736" y="140" width="36" height="36" rx="8" fill="#eef2ff"/>
  <!-- Bar chart icon -->
  <g transform="translate(744, 148)" fill="none" stroke="#4f46e5" stroke-width="1.5" stroke-linecap="round">
    <rect x="2" y="8" width="3" height="10" rx="0.5"/>
    <rect x="8" y="4" width="3" height="14" rx="0.5"/>
    <rect x="14" y="0" width="3" height="18" rx="0.5"/>
  </g>
  <text x="784" y="152" font-family="Inter, system-ui, sans-serif" font-size="26" font-weight="700" fill="#111827">72%</text>
  <text x="784" y="170" font-family="Inter, system-ui, sans-serif" font-size="12" fill="#111827">Avg. Completion</text>

  <!-- KPI 4: Needs Attention -->
  <rect x="950" y="120" width="218" height="80" rx="8" fill="white" filter="url(#cardShadow)"/>
  <rect x="966" y="140" width="36" height="36" rx="8" fill="#fef2f2"/>
  <!-- Warning icon -->
  <g transform="translate(974, 148)" fill="none" stroke="#dc2626" stroke-width="1.5" stroke-linecap="round" stroke-linejoin="round">
    <path d="M9 2L17 16H1L9 2z"/>
    <line x1="9" y1="7" x2="9" y2="10"/>
    <circle cx="9" cy="13" r="0.5" fill="#dc2626"/>
  </g>
  <text x="1014" y="152" font-family="Inter, system-ui, sans-serif" font-size="26" font-weight="700" fill="#111827">2</text>
  <text x="1014" y="170" font-family="Inter, system-ui, sans-serif" font-size="12" fill="#111827">Needs Attention</text>

  <!-- ─── CLASSIFICATION BREAKDOWN ─── -->
  <rect x="260" y="216" width="908" height="64" rx="8" fill="white" filter="url(#cardShadow)"/>
  <text x="280" y="240" font-family="Inter, system-ui, sans-serif" font-size="12" font-weight="600" fill="#111827">Classification Breakdown</text>

  <!-- Pills -->
  <rect x="280" y="250" width="112" height="24" rx="12" fill="#ef4444"/>
  <text x="336" y="266" text-anchor="middle" font-family="Inter, system-ui, sans-serif" font-size="11" font-weight="500" fill="white">Unacceptable: 1</text>

  <rect x="400" y="250" width="95" height="24" rx="12" fill="#f97316"/>
  <text x="448" y="266" text-anchor="middle" font-family="Inter, system-ui, sans-serif" font-size="11" font-weight="500" fill="white">High Risk: 2</text>

  <rect x="503" y="250" width="108" height="24" rx="12" fill="#eab308"/>
  <text x="557" y="266" text-anchor="middle" font-family="Inter, system-ui, sans-serif" font-size="11" font-weight="500" fill="white">Limited Risk: 1</text>

  <rect x="619" y="250" width="112" height="24" rx="12" fill="#22c55e"/>
  <text x="675" y="266" text-anchor="middle" font-family="Inter, system-ui, sans-serif" font-size="11" font-weight="500" fill="white">Minimal Risk: 2</text>

  <rect x="739" y="250" width="75" height="24" rx="12" fill="#3b82f6"/>
  <text x="777" y="266" text-anchor="middle" font-family="Inter, system-ui, sans-serif" font-size="11" font-weight="500" fill="white">GPAI: 1</text>

  <rect x="822" y="250" width="110" height="24" rx="12" fill="#d1d5db"/>
  <text x="877" y="266" text-anchor="middle" font-family="Inter, system-ui, sans-serif" font-size="11" font-weight="500" fill="#111827">Not classified: 1</text>

  <!-- ─── GAP ANALYSIS TABLE ─── -->
  <rect x="260" y="296" width="908" height="510" rx="8" fill="white" filter="url(#cardShadow)"/>

  <!-- Table header area -->
  <text x="280" y="326" font-family="Inter, system-ui, sans-serif" font-size="16" font-weight="600" fill="#111827">Gap Analysis</text>
  <text x="280" y="344" font-family="Inter, system-ui, sans-serif" font-size="12" fill="#111827">Compliance completion per system based on required EU AI Act fields</text>

  <line x1="260" y1="358" x2="1168" y2="358" stroke="#e5e7eb" stroke-width="1"/>

  <!-- Column headers -->
  <rect x="260" y="358" width="908" height="32" fill="#f9fafb"/>
  <text x="280" y="379" font-family="Inter, system-ui, sans-serif" font-size="10" font-weight="600" fill="#111827" letter-spacing="0.05em">SYSTEM</text>
  <text x="520" y="379" font-family="Inter, system-ui, sans-serif" font-size="10" font-weight="600" fill="#111827" letter-spacing="0.05em">CLASSIFICATION</text>
  <text x="700" y="379" font-family="Inter, system-ui, sans-serif" font-size="10" font-weight="600" fill="#111827" letter-spacing="0.05em">COMPLETION</text>
  <text x="880" y="379" font-family="Inter, system-ui, sans-serif" font-size="10" font-weight="600" fill="#111827" letter-spacing="0.05em">STATUS</text>
  <text x="980" y="379" font-family="Inter, system-ui, sans-serif" font-size="10" font-weight="600" fill="#111827" letter-spacing="0.05em">MISSING FIELDS</text>
  <line x1="260" y1="390" x2="1168" y2="390" stroke="#e5e7eb" stroke-width="1"/>

  <!-- Row 1: Fraud Detection — High Risk, 100% complete -->
  <text x="280" y="414" font-family="Inter, system-ui, sans-serif" font-size="13" font-weight="500" fill="#111827">Fraud Detection Model v2</text>
  <text x="280" y="428" font-family="Inter, system-ui, sans-serif" font-size="10" fill="#9ca3af">sys-a1b2c3d4e5f6</text>
  <rect x="520" y="404" width="75" height="20" rx="10" fill="#f97316"/>
  <text x="557" y="418" text-anchor="middle" font-family="Inter, system-ui, sans-serif" font-size="10" font-weight="500" fill="white">High Risk</text>
  <!-- Progress bar 100% -->
  <rect x="700" y="411" width="100" height="8" rx="4" fill="#e5e7eb"/>
  <rect x="700" y="411" width="100" height="8" rx="4" fill="#22c55e"/>
  <text x="808" y="419" font-family="Inter, system-ui, sans-serif" font-size="11" font-weight="500" fill="#111827">13/13</text>
  <!-- Status badge -->
  <rect x="880" y="404" width="72" height="22" rx="11" fill="#dcfce7"/>
  <!-- Checkmark -->
  <g transform="translate(888, 410)" fill="none" stroke="#16a34a" stroke-width="1.5" stroke-linecap="round" stroke-linejoin="round">
    <path d="M1 5l3 3 6-6"/>
  </g>
  <text x="903" y="419" font-family="Inter, system-ui, sans-serif" font-size="10" font-weight="500" fill="#166534">Complete</text>
  <text x="980" y="418" font-family="Inter, system-ui, sans-serif" font-size="11" fill="#9ca3af">—</text>
  <line x1="260" y1="440" x2="1168" y2="440" stroke="#f3f4f6" stroke-width="1"/>

  <!-- Row 2: Resume Screening — High Risk, 77% -->
  <text x="280" y="464" font-family="Inter, system-ui, sans-serif" font-size="13" font-weight="500" fill="#111827">Resume Screening AI</text>
  <text x="280" y="478" font-family="Inter, system-ui, sans-serif" font-size="10" fill="#9ca3af">sys-f6e5d4c3b2a1</text>
  <rect x="520" y="454" width="75" height="20" rx="10" fill="#f97316"/>
  <text x="557" y="468" text-anchor="middle" font-family="Inter, system-ui, sans-serif" font-size="10" font-weight="500" fill="white">High Risk</text>
  <!-- Progress bar 77% -->
  <rect x="700" y="461" width="100" height="8" rx="4" fill="#e5e7eb"/>
  <rect x="700" y="461" width="77" height="8" rx="4" fill="#eab308"/>
  <text x="808" y="469" font-family="Inter, system-ui, sans-serif" font-size="11" font-weight="500" fill="#111827">10/13</text>
  <rect x="880" y="454" width="60" height="22" rx="11" fill="#fef9c3"/>
  <text x="893" y="469" font-family="Inter, system-ui, sans-serif" font-size="10" font-weight="500" fill="#854d0e">Partial</text>
  <!-- Missing fields pills -->
  <rect x="980" y="456" width="68" height="18" rx="4" fill="#f3f4f6"/>
  <text x="1014" y="469" text-anchor="middle" font-family="Inter, system-ui, sans-serif" font-size="9" fill="#111827">Ce Marking</text>
  <rect x="1054" y="456" width="72" height="18" rx="4" fill="#f3f4f6"/>
  <text x="1090" y="469" text-anchor="middle" font-family="Inter, system-ui, sans-serif" font-size="9" fill="#111827">Registration</text>
  <text x="1134" y="469" font-family="Inter, system-ui, sans-serif" font-size="10" fill="#9ca3af">+1</text>
  <line x1="260" y1="490" x2="1168" y2="490" stroke="#f3f4f6" stroke-width="1"/>

  <!-- Row 3: Customer Churn — Minimal Risk, 100% -->
  <text x="280" y="514" font-family="Inter, system-ui, sans-serif" font-size="13" font-weight="500" fill="#111827">Customer Churn Predictor</text>
  <text x="280" y="528" font-family="Inter, system-ui, sans-serif" font-size="10" fill="#9ca3af">sys-c3d4e5f6a1b2</text>
  <rect x="520" y="504" width="88" height="20" rx="10" fill="#22c55e"/>
  <text x="564" y="518" text-anchor="middle" font-family="Inter, system-ui, sans-serif" font-size="10" font-weight="500" fill="white">Minimal Risk</text>
  <!-- Progress bar 100% -->
  <rect x="700" y="511" width="100" height="8" rx="4" fill="#e5e7eb"/>
  <rect x="700" y="511" width="100" height="8" rx="4" fill="#22c55e"/>
  <text x="808" y="519" font-family="Inter, system-ui, sans-serif" font-size="11" font-weight="500" fill="#111827">7/7</text>
  <rect x="880" y="504" width="72" height="22" rx="11" fill="#dcfce7"/>
  <g transform="translate(888, 510)" fill="none" stroke="#16a34a" stroke-width="1.5" stroke-linecap="round" stroke-linejoin="round">
    <path d="M1 5l3 3 6-6"/>
  </g>
  <text x="903" y="519" font-family="Inter, system-ui, sans-serif" font-size="10" font-weight="500" fill="#166534">Complete</text>
  <text x="980" y="518" font-family="Inter, system-ui, sans-serif" font-size="11" fill="#9ca3af">—</text>
  <line x1="260" y1="540" x2="1168" y2="540" stroke="#f3f4f6" stroke-width="1"/>

  <!-- Row 4: Content Moderation — Limited Risk, 57% -->
  <text x="280" y="564" font-family="Inter, system-ui, sans-serif" font-size="13" font-weight="500" fill="#111827">Content Moderation Engine</text>
  <text x="280" y="578" font-family="Inter, system-ui, sans-serif" font-size="10" fill="#9ca3af">sys-d4e5f6a1b2c3</text>
  <rect x="520" y="554" width="88" height="20" rx="10" fill="#eab308"/>
  <text x="564" y="568" text-anchor="middle" font-family="Inter, system-ui, sans-serif" font-size="10" font-weight="500" fill="white">Limited Risk</text>
  <!-- Progress bar 57% -->
  <rect x="700" y="561" width="100" height="8" rx="4" fill="#e5e7eb"/>
  <rect x="700" y="561" width="57" height="8" rx="4" fill="#eab308"/>
  <text x="808" y="569" font-family="Inter, system-ui, sans-serif" font-size="11" font-weight="500" fill="#111827">4/7</text>
  <rect x="880" y="554" width="60" height="22" rx="11" fill="#fef9c3"/>
  <text x="893" y="569" font-family="Inter, system-ui, sans-serif" font-size="10" font-weight="500" fill="#854d0e">Partial</text>
  <rect x="980" y="556" width="62" height="18" rx="4" fill="#f3f4f6"/>
  <text x="1011" y="569" text-anchor="middle" font-family="Inter, system-ui, sans-serif" font-size="9" fill="#111827">Provider</text>
  <rect x="1048" y="556" width="74" height="18" rx="4" fill="#f3f4f6"/>
  <text x="1085" y="569" text-anchor="middle" font-family="Inter, system-ui, sans-serif" font-size="9" fill="#111827">Transparency</text>
  <text x="1130" y="569" font-family="Inter, system-ui, sans-serif" font-size="10" fill="#9ca3af">+1</text>
  <line x1="260" y1="590" x2="1168" y2="590" stroke="#f3f4f6" stroke-width="1"/>

  <!-- Row 5: Chatbot Assistant — GPAI, 85% -->
  <text x="280" y="614" font-family="Inter, system-ui, sans-serif" font-size="13" font-weight="500" fill="#111827">Customer Chatbot Assistant</text>
  <text x="280" y="628" font-family="Inter, system-ui, sans-serif" font-size="10" fill="#9ca3af">sys-e5f6a1b2c3d4</text>
  <rect x="520" y="604" width="52" height="20" rx="10" fill="#3b82f6"/>
  <text x="546" y="618" text-anchor="middle" font-family="Inter, system-ui, sans-serif" font-size="10" font-weight="500" fill="white">GPAI</text>
  <!-- Progress bar 85% -->
  <rect x="700" y="611" width="100" height="8" rx="4" fill="#e5e7eb"/>
  <rect x="700" y="611" width="85" height="8" rx="4" fill="#eab308"/>
  <text x="808" y="619" font-family="Inter, system-ui, sans-serif" font-size="11" font-weight="500" fill="#111827">6/7</text>
  <rect x="880" y="604" width="60" height="22" rx="11" fill="#fef9c3"/>
  <text x="893" y="619" font-family="Inter, system-ui, sans-serif" font-size="10" font-weight="500" fill="#854d0e">Partial</text>
  <rect x="980" y="606" width="72" height="18" rx="4" fill="#f3f4f6"/>
  <text x="1016" y="619" text-anchor="middle" font-family="Inter, system-ui, sans-serif" font-size="9" fill="#111827">Intended Users</text>
  <line x1="260" y1="640" x2="1168" y2="640" stroke="#f3f4f6" stroke-width="1"/>

  <!-- Row 6: Social Scoring — Unacceptable, 30% (red) -->
  <text x="280" y="664" font-family="Inter, system-ui, sans-serif" font-size="13" font-weight="500" fill="#111827">Social Scoring Prototype</text>
  <text x="280" y="678" font-family="Inter, system-ui, sans-serif" font-size="10" fill="#9ca3af">sys-1a2b3c4d5e6f</text>
  <rect x="520" y="654" width="92" height="20" rx="10" fill="#ef4444"/>
  <text x="566" y="668" text-anchor="middle" font-family="Inter, system-ui, sans-serif" font-size="10" font-weight="500" fill="white">Unacceptable</text>
  <!-- Progress bar 30% -->
  <rect x="700" y="661" width="100" height="8" rx="4" fill="#e5e7eb"/>
  <rect x="700" y="661" width="30" height="8" rx="4" fill="#ef4444"/>
  <text x="808" y="669" font-family="Inter, system-ui, sans-serif" font-size="11" font-weight="500" fill="#111827">2/7</text>
  <rect x="880" y="654" width="78" height="22" rx="11" fill="#fef2f2"/>
  <text x="893" y="669" font-family="Inter, system-ui, sans-serif" font-size="10" font-weight="500" fill="#991b1b">Incomplete</text>
  <rect x="980" y="656" width="56" height="18" rx="4" fill="#f3f4f6"/>
  <text x="1008" y="669" text-anchor="middle" font-family="Inter, system-ui, sans-serif" font-size="9" fill="#111827">Purpose</text>
  <rect x="1042" y="656" width="62" height="18" rx="4" fill="#f3f4f6"/>
  <text x="1073" y="669" text-anchor="middle" font-family="Inter, system-ui, sans-serif" font-size="9" fill="#111827">Provider</text>
  <text x="1112" y="669" font-family="Inter, system-ui, sans-serif" font-size="10" fill="#9ca3af">+3</text>
  <line x1="260" y1="690" x2="1168" y2="690" stroke="#f3f4f6" stroke-width="1"/>

  <!-- Row 7: Predictive Maintenance — Minimal Risk, 100% -->
  <text x="280" y="714" font-family="Inter, system-ui, sans-serif" font-size="13" font-weight="500" fill="#111827">Predictive Maintenance ML</text>
  <text x="280" y="728" font-family="Inter, system-ui, sans-serif" font-size="10" fill="#9ca3af">sys-b2c3d4e5f6a1</text>
  <rect x="520" y="704" width="88" height="20" rx="10" fill="#22c55e"/>
  <text x="564" y="718" text-anchor="middle" font-family="Inter, system-ui, sans-serif" font-size="10" font-weight="500" fill="white">Minimal Risk</text>
  <rect x="700" y="711" width="100" height="8" rx="4" fill="#e5e7eb"/>
  <rect x="700" y="711" width="100" height="8" rx="4" fill="#22c55e"/>
  <text x="808" y="719" font-family="Inter, system-ui, sans-serif" font-size="11" font-weight="500" fill="#111827">7/7</text>
  <rect x="880" y="704" width="72" height="22" rx="11" fill="#dcfce7"/>
  <g transform="translate(888, 710)" fill="none" stroke="#16a34a" stroke-width="1.5" stroke-linecap="round" stroke-linejoin="round">
    <path d="M1 5l3 3 6-6"/>
  </g>
  <text x="903" y="719" font-family="Inter, system-ui, sans-serif" font-size="10" font-weight="500" fill="#166534">Complete</text>
  <text x="980" y="718" font-family="Inter, system-ui, sans-serif" font-size="11" fill="#9ca3af">—</text>
  <line x1="260" y1="740" x2="1168" y2="740" stroke="#f3f4f6" stroke-width="1"/>

  <!-- Row 8: Legacy ERP — Not classified, gray -->
  <text x="280" y="764" font-family="Inter, system-ui, sans-serif" font-size="13" font-weight="500" fill="#111827">Legacy ERP System</text>
  <text x="280" y="778" font-family="Inter, system-ui, sans-serif" font-size="10" fill="#9ca3af">sys-0f1e2d3c4b5a</text>
  <text x="530" y="768" font-family="Inter, system-ui, sans-serif" font-size="12" fill="#9ca3af">—</text>
  <rect x="700" y="761" width="100" height="8" rx="4" fill="#e5e7eb"/>
  <text x="808" y="769" font-family="Inter, system-ui, sans-serif" font-size="11" font-weight="500" fill="#111827">0/0</text>
  <rect x="880" y="754" width="92" height="22" rx="11" fill="#f3f4f6"/>
  <text x="893" y="769" font-family="Inter, system-ui, sans-serif" font-size="10" font-weight="500" fill="#374151">Not classified</text>
  <text x="980" y="768" font-family="Inter, system-ui, sans-serif" font-size="11" fill="#9ca3af">—</text>

  </g>
</svg>