<svg viewBox="0 0 640 340" xmlns="http://www.w3.org/2000/svg" font-family="Inter, system-ui, sans-serif">
  <rect x="200" y="16" width="240" height="44" rx="10" fill="#1e1b4b" stroke="none"/>
  <text x="320" y="30" text-anchor="middle" font-size="10" fill="#a5b4fc" letter-spacing="0.05em">TENANT</text>
  <text x="320" y="43" text-anchor="middle" font-size="14" fill="white" font-weight="600">Acme Corp</text>

  <rect x="60" y="110" width="220" height="40" rx="8" fill="#eef2ff" stroke="#6366f1" stroke-width="1.5"/>
  <text x="170" y="125" text-anchor="middle" font-size="10" fill="#6366f1" font-weight="600" letter-spacing="0.05em">SCOPE</text>
  <text x="170" y="141" text-anchor="middle" font-size="13" fill="#1e1b4b" font-weight="500">Engineering</text>

  <rect x="360" y="110" width="220" height="40" rx="8" fill="#eef2ff" stroke="#6366f1" stroke-width="1.5"/>
  <text x="470" y="125" text-anchor="middle" font-size="10" fill="#6366f1" font-weight="600" letter-spacing="0.05em">SCOPE</text>
  <text x="470" y="141" text-anchor="middle" font-size="13" fill="#1e1b4b" font-weight="500">Opérations</text>

  <rect x="30" y="200" width="140" height="36" rx="6" fill="#f8fafc" stroke="#cbd5e1" stroke-width="1"/>
  <text x="100" y="222" text-anchor="middle" font-size="12" fill="#334155">paiements</text>
  <text x="100" y="188" text-anchor="middle" font-size="9" fill="#94a3b8" letter-spacing="0.05em">NAMESPACE</text>

  <rect x="190" y="200" width="140" height="36" rx="6" fill="#f8fafc" stroke="#cbd5e1" stroke-width="1"/>
  <text x="260" y="222" text-anchor="middle" font-size="12" fill="#334155">infrastructure</text>
  <text x="260" y="188" text-anchor="middle" font-size="9" fill="#94a3b8" letter-spacing="0.05em">NAMESPACE</text>

  <rect x="110" y="270" width="140" height="36" rx="6" fill="#f8fafc" stroke="#cbd5e1" stroke-width="1" stroke-dasharray="5,3"/>
  <text x="180" y="292" text-anchor="middle" font-size="12" fill="#94a3b8">_root (défaut)</text>

  <rect x="400" y="200" width="140" height="36" rx="6" fill="#f8fafc" stroke="#cbd5e1" stroke-width="1" stroke-dasharray="5,3"/>
  <text x="470" y="222" text-anchor="middle" font-size="12" fill="#94a3b8">_root (défaut)</text>
  <text x="470" y="188" text-anchor="middle" font-size="9" fill="#94a3b8" letter-spacing="0.05em">NAMESPACE</text>

  <line x1="320" y1="60" x2="170" y2="110" stroke="#6366f1" stroke-width="1.5"/>
  <line x1="320" y1="60" x2="470" y2="110" stroke="#6366f1" stroke-width="1.5"/>
  <line x1="130" y1="150" x2="100" y2="200" stroke="#cbd5e1" stroke-width="1.5"/>
  <line x1="200" y1="150" x2="260" y2="200" stroke="#cbd5e1" stroke-width="1.5"/>
  <line x1="170" y1="150" x2="180" y2="270" stroke="#cbd5e1" stroke-width="1" stroke-dasharray="5,3"/>
  <line x1="470" y1="150" x2="470" y2="200" stroke="#cbd5e1" stroke-width="1" stroke-dasharray="5,3"/>
</svg>
