<svg viewBox="0 0 820 580" xmlns="http://www.w3.org/2000/svg" font-family="-apple-system, BlinkMacSystemFont, 'Segoe UI', Helvetica, Arial, sans-serif">

  <!-- GitHub comment card -->
  <rect x="0" y="0" width="820" height="580" rx="6" fill="#ffffff" stroke="#d1d9e0" stroke-width="1"/>

  <!-- Comment header bar -->
  <rect x="0" y="0" width="820" height="40" rx="6" fill="#f6f8fa" stroke="#d1d9e0" stroke-width="1"/>
  <rect x="0" y="20" width="820" height="20" fill="#f6f8fa"/>
  <circle cx="28" cy="20" r="12" fill="#ddf4ff" stroke="#54aeff" stroke-width="1"/>
  <text x="28" y="24" text-anchor="middle" font-size="11" fill="#0969da" font-weight="600">K</text>
  <text x="48" y="25" font-size="13" fill="#1f2328" font-weight="600">knowledge-bot</text>
  <text x="175" y="25" font-size="13" fill="#656d76">commented 2 minutes ago</text>

  <!-- Divider under header -->
  <line x1="0" y1="40" x2="820" y2="40" stroke="#d1d9e0" stroke-width="1"/>

  <!-- Content area -->
  <!-- H2: Title -->
  <text x="24" y="76" font-size="20" fill="#1f2328" font-weight="600">Knowledge Compliance Report — PR #143</text>
  <line x1="24" y1="86" x2="796" y2="86" stroke="#d1d9e0" stroke-width="1"/>

  <!-- Verdict badge -->
  <text x="24" y="114" font-size="15" fill="#1f2328" font-weight="600">Verdict : </text>
  <rect x="96" y="100" width="60" height="22" rx="11" fill="#d1242f"/>
  <text x="126" y="116" text-anchor="middle" font-size="12" fill="white" font-weight="600">FAIL</text>
  <text x="166" y="114" font-size="15" fill="#d1242f">✗</text>

  <!-- H3: Invariants -->
  <text x="24" y="152" font-size="16" fill="#1f2328" font-weight="600">Invariants (2/3 suivis)</text>

  <!-- Table: header -->
  <rect x="24" y="164" width="772" height="30" fill="#f6f8fa" stroke="#d1d9e0" stroke-width="1"/>
  <line x1="174" y1="164" x2="174" y2="194" stroke="#d1d9e0" stroke-width="1"/>
  <line x1="600" y1="164" x2="600" y2="194" stroke="#d1d9e0" stroke-width="1"/>
  <text x="36" y="184" font-size="12" fill="#656d76" font-weight="600">Entrée</text>
  <text x="186" y="184" font-size="12" fill="#656d76" font-weight="600">Contrainte</text>
  <text x="612" y="184" font-size="12" fill="#656d76" font-weight="600">Statut</text>

  <!-- Row 1: violated -->
  <rect x="24" y="194" width="772" height="30" fill="#fff" stroke="#d1d9e0" stroke-width="1"/>
  <line x1="174" y1="194" x2="174" y2="224" stroke="#d1d9e0" stroke-width="1"/>
  <line x1="600" y1="194" x2="600" y2="224" stroke="#d1d9e0" stroke-width="1"/>
  <text x="36" y="214" font-size="12" fill="#1f2328" font-family="ui-monospace, SFMono-Regular, monospace">inv-a1b2c3</text>
  <text x="186" y="214" font-size="12" fill="#1f2328">Tous les endpoints exigent une authentification</text>
  <text x="612" y="214" font-size="12" fill="#d1242f" font-weight="600">✗ VIOLÉ</text>

  <!-- Row 2: followed -->
  <rect x="24" y="224" width="772" height="30" fill="#f6f8fa" stroke="#d1d9e0" stroke-width="1"/>
  <line x1="174" y1="224" x2="174" y2="254" stroke="#d1d9e0" stroke-width="1"/>
  <line x1="600" y1="224" x2="600" y2="254" stroke="#d1d9e0" stroke-width="1"/>
  <text x="36" y="244" font-size="12" fill="#1f2328" font-family="ui-monospace, SFMono-Regular, monospace">inv-d4e5f6</text>
  <text x="186" y="244" font-size="12" fill="#1f2328">Pas de dépendances AGPL</text>
  <text x="612" y="244" font-size="12" fill="#1a7f37" font-weight="600">✓ Suivi</text>

  <!-- Row 3: followed -->
  <rect x="24" y="254" width="772" height="30" fill="#fff" stroke="#d1d9e0" stroke-width="1"/>
  <line x1="174" y1="254" x2="174" y2="284" stroke="#d1d9e0" stroke-width="1"/>
  <line x1="600" y1="254" x2="600" y2="284" stroke="#d1d9e0" stroke-width="1"/>
  <text x="36" y="274" font-size="12" fill="#1f2328" font-family="ui-monospace, SFMono-Regular, monospace">inv-g7h8i9</text>
  <text x="186" y="274" font-size="12" fill="#1f2328">PII chiffrée at rest</text>
  <text x="612" y="274" font-size="12" fill="#1a7f37" font-weight="600">✓ Suivi</text>

  <!-- H3: Rules Mandatory -->
  <text x="24" y="322" font-size="16" fill="#1f2328" font-weight="600">Rules Mandatory (4/5 suivies)</text>

  <!-- Table: header -->
  <rect x="24" y="334" width="772" height="30" fill="#f6f8fa" stroke="#d1d9e0" stroke-width="1"/>
  <line x1="174" y1="334" x2="174" y2="364" stroke="#d1d9e0" stroke-width="1"/>
  <line x1="600" y1="334" x2="600" y2="364" stroke="#d1d9e0" stroke-width="1"/>
  <text x="36" y="354" font-size="12" fill="#656d76" font-weight="600">Entrée</text>
  <text x="186" y="354" font-size="12" fill="#656d76" font-weight="600">Directive</text>
  <text x="612" y="354" font-size="12" fill="#656d76" font-weight="600">Statut</text>

  <!-- Row 1: followed -->
  <rect x="24" y="364" width="772" height="30" fill="#fff" stroke="#d1d9e0" stroke-width="1"/>
  <line x1="174" y1="364" x2="174" y2="394" stroke="#d1d9e0" stroke-width="1"/>
  <line x1="600" y1="364" x2="600" y2="394" stroke="#d1d9e0" stroke-width="1"/>
  <text x="36" y="384" font-size="12" fill="#1f2328" font-family="ui-monospace, SFMono-Regular, monospace">rul-j1k2l3</text>
  <text x="186" y="384" font-size="12" fill="#1f2328">Utiliser les conventional commits</text>
  <text x="612" y="384" font-size="12" fill="#1a7f37" font-weight="600">✓ Suivi</text>

  <!-- Row 2: diverged -->
  <rect x="24" y="394" width="772" height="30" fill="#f6f8fa" stroke="#d1d9e0" stroke-width="1"/>
  <line x1="174" y1="394" x2="174" y2="424" stroke="#d1d9e0" stroke-width="1"/>
  <line x1="600" y1="394" x2="600" y2="424" stroke="#d1d9e0" stroke-width="1"/>
  <text x="36" y="414" font-size="12" fill="#1f2328" font-family="ui-monospace, SFMono-Regular, monospace">rul-m4n5o6</text>
  <text x="186" y="414" font-size="12" fill="#1f2328">Longueur max de fonction 50 lignes</text>
  <text x="612" y="414" font-size="12" fill="#9a6700" font-weight="600">⚠ Divergé</text>

  <!-- Divider -->
  <line x1="24" y1="444" x2="796" y2="444" stroke="#d1d9e0" stroke-width="1"/>

  <!-- Warning blockquote -->
  <rect x="24" y="460" width="4" height="40" rx="2" fill="#d1242f"/>
  <rect x="28" y="460" width="768" height="40" rx="0" fill="#ffebe9"/>
  <text x="44" y="485" font-size="13" fill="#82071e">1 invariant violé. Corrigez ou enregistrez un override avant de merger.</text>

  <!-- GitHub reactions bar -->
  <rect x="24" y="520" width="772" height="36" rx="0" fill="#f6f8fa"/>
  <rect x="36" y="528" width="40" height="20" rx="10" fill="white" stroke="#d1d9e0" stroke-width="1"/>
  <text x="56" y="542" text-anchor="middle" font-size="12">👍</text>
  <rect x="84" y="528" width="40" height="20" rx="10" fill="white" stroke="#d1d9e0" stroke-width="1"/>
  <text x="104" y="542" text-anchor="middle" font-size="12">👀</text>
  <rect x="132" y="528" width="40" height="20" rx="10" fill="white" stroke="#d1d9e0" stroke-width="1"/>
  <text x="152" y="542" text-anchor="middle" font-size="12">🚀</text>

</svg>
