<svg viewBox="0 0 520 420" xmlns="http://www.w3.org/2000/svg" font-family="Inter, system-ui, sans-serif">
  <defs>
    <marker id="ph-arrow" markerWidth="8" markerHeight="6" refX="8" refY="3" orient="auto">
      <path d="M0,0 L8,3 L0,6" fill="#ef4444"/>
    </marker>
  </defs>

  <text x="260" y="24" text-anchor="middle" font-size="13" fill="#ef4444" font-weight="700" letter-spacing="0.03em">WITHOUT KNOWLEDGE</text>

  <rect x="130" y="44" width="260" height="44" rx="10" fill="#f8fafc" stroke="#94a3b8" stroke-width="1.5"/>
  <text x="260" y="71" text-anchor="middle" font-size="13" fill="#1e293b">Agent receives task</text>

  <line x1="260" y1="88" x2="260" y2="120" stroke="#ef4444" stroke-width="1.5" marker-end="url(#ph-arrow)"/>

  <rect x="130" y="120" width="260" height="44" rx="10" fill="#fef2f2" stroke="#ef4444" stroke-width="1.5"/>
  <text x="260" y="140" text-anchor="middle" font-size="12" fill="#450a0a" font-weight="500">Agent writes code</text>
  <text x="260" y="155" text-anchor="middle" font-size="11" fill="#ef4444" font-style="italic">no context about your rules</text>

  <line x1="260" y1="164" x2="260" y2="196" stroke="#ef4444" stroke-width="1.5" marker-end="url(#ph-arrow)"/>

  <rect x="130" y="196" width="260" height="44" rx="10" fill="#f8fafc" stroke="#94a3b8" stroke-width="1.5"/>
  <text x="260" y="223" text-anchor="middle" font-size="13" fill="#1e293b">Human reviews output</text>

  <line x1="260" y1="240" x2="260" y2="272" stroke="#ef4444" stroke-width="1.5" marker-end="url(#ph-arrow)"/>

  <rect x="130" y="272" width="260" height="44" rx="10" fill="#fef2f2" stroke="#ef4444" stroke-width="1.5"/>
  <text x="260" y="292" text-anchor="middle" font-size="12" fill="#450a0a" font-weight="500">Human catches violation</text>
  <text x="260" y="307" text-anchor="middle" font-size="11" fill="#ef4444" font-style="italic">(maybe)</text>

  <line x1="260" y1="316" x2="260" y2="348" stroke="#ef4444" stroke-width="1.5" marker-end="url(#ph-arrow)"/>

  <rect x="130" y="348" width="260" height="44" rx="10" fill="#fef2f2" stroke="#ef4444" stroke-width="1.5"/>
  <text x="260" y="368" text-anchor="middle" font-size="12" fill="#450a0a" font-weight="500">Agent rewrites</text>
  <text x="260" y="383" text-anchor="middle" font-size="11" fill="#ef4444" font-style="italic">wasted cycle</text>
</svg>
